<svg width="12" height="12" viewBox="0 0 12 12" fill="none" xmlns="http://www.w3.org/2000/svg">
<path d="M2.17439 5.22067C2.1746 6.24243 2.51665 7.23475 3.14609 8.03962L1.02252 10.1632C0.797749 10.388 0.797749 10.7524 1.02252 10.9771C1.24729 11.2019 1.61172 11.2019 1.83649 10.9771L3.96005 8.85358C4.765 9.48334 5.75755 9.82561 6.77958 9.82585C9.31876 9.82585 11.3848 7.75985 11.3848 5.22067C11.3848 2.68148 9.31876 0.615478 6.77958 0.615478C4.24039 0.615478 2.17439 2.68148 2.17439 5.22067ZM10.2335 5.22067C10.2335 7.12549 8.6844 8.67456 6.77958 8.67456C4.87476 8.67456 3.32569 7.12549 3.32569 5.22067C3.32569 3.31584 4.87476 1.76678 6.77958 1.76678C8.6844 1.76678 10.2335 3.31585 10.2335 5.22067Z" fill="white"/>
<path d="M7.59331 6.03335C7.37456 6.25152 7.08558 6.37183 6.77934 6.37183L6.77934 7.52313C7.08188 7.52363 7.38153 7.46417 7.66095 7.34817C7.94038 7.23217 8.19404 7.06194 8.40727 6.84731C9.27765 5.97578 9.27765 4.46471 8.40727 3.59375L7.59215 4.40657C8.0285 4.84406 8.02734 5.59816 7.59331 6.03335Z" fill="white"/>
</svg>
