<svg width="12" height="12" viewBox="0 0 12 12" fill="none" xmlns="http://www.w3.org/2000/svg">
<path d="M11.6001 5.09774L11.6001 1.55107C11.6001 1.3943 11.5378 1.24395 11.427 1.13309C11.3161 1.02224 11.1658 0.959961 11.009 0.959961L7.46232 0.959961C7.30555 0.959961 7.1552 1.02224 7.04434 1.13309C6.93349 1.24395 6.87121 1.3943 6.87121 1.55107L6.87121 5.09774C6.87121 5.25451 6.93349 5.40486 7.04434 5.51572C7.1552 5.62657 7.30555 5.68885 7.46232 5.68885L11.009 5.68885C11.1658 5.68885 11.3161 5.62657 11.427 5.51572C11.5378 5.40486 11.6001 5.25451 11.6001 5.09774ZM8.05343 4.50663L8.05343 2.14218L10.4179 2.14218L10.4179 4.50663L8.05343 4.50663ZM11.6001 11.0088L11.6001 7.46218C11.6001 7.30541 11.5378 7.15506 11.427 7.0442C11.3161 6.93335 11.1658 6.87107 11.009 6.87107L7.46232 6.87107C7.30555 6.87107 7.1552 6.93335 7.04434 7.0442C6.93349 7.15506 6.87121 7.30541 6.87121 7.46218L6.87121 11.0088C6.87121 11.1656 6.93349 11.316 7.04434 11.4268C7.1552 11.5377 7.30555 11.6 7.46232 11.6L11.009 11.6C11.1658 11.6 11.3161 11.5377 11.427 11.4268C11.5378 11.316 11.6001 11.1656 11.6001 11.0088ZM8.05343 10.4177L8.05343 8.05329L10.4179 8.05329L10.4179 10.4177L8.05343 10.4177ZM5.68899 5.09774L5.68899 1.55107C5.68899 1.3943 5.62671 1.24395 5.51586 1.13309C5.405 1.02224 5.25465 0.959961 5.09788 0.959961L1.55121 0.95996C1.39444 0.95996 1.24409 1.02224 1.13323 1.13309C1.02238 1.24395 0.9601 1.3943 0.9601 1.55107L0.9601 5.09774C0.9601 5.25451 1.02238 5.40486 1.13323 5.51572C1.24409 5.62657 1.39444 5.68885 1.55121 5.68885L5.09788 5.68885C5.25465 5.68885 5.405 5.62657 5.51586 5.51572C5.62671 5.40486 5.68899 5.25451 5.68899 5.09774ZM2.14232 4.50663L2.14232 2.14218L4.50677 2.14218L4.50677 4.50663L2.14232 4.50663ZM5.68899 9.23551C5.68899 7.93152 4.62854 6.87107 3.32454 6.87107C2.02055 6.87107 0.9601 7.93152 0.9601 9.23551C0.9601 10.5395 2.02055 11.6 3.32454 11.6C4.62853 11.6 5.68899 10.5395 5.68899 9.23551ZM2.14232 9.23551C2.14232 8.58352 2.67255 8.05329 3.32454 8.05329C3.97654 8.05329 4.50677 8.58352 4.50677 9.23551C4.50677 9.88751 3.97654 10.4177 3.32454 10.4177C2.67255 10.4177 2.14232 9.88751 2.14232 9.23551Z" fill="white"/>
</svg>
